<svg xmlns="http://www.w3.org/2000/svg" version="1.1" xmlns:xlink="http://www.w3.org/1999/xlink" xmlns:svgjs="http://svgjs.com/svgjs" width="800px" height="800px"><svg height="800px" width="800px" version="1.1" id="SvgjsSvg1003" xmlns="http://www.w3.org/2000/svg" xmlns:xlink="http://www.w3.org/1999/xlink" viewBox="-51.2 -51.2 614.40 614.40" xml:space="preserve" fill="#000000">

<g id="SvgjsG1002" stroke-width="0">

<rect x="-51.2" y="-51.2" width="614.40" height="614.40" rx="307.2" fill="#FDCE9A" strokewidth="0"></rect>

</g>

<g id="SvgjsG1001" stroke-linecap="round" stroke-linejoin="round"></g>

<g id="SvgjsG1000"> <circle style="fill:#5F6D30;" cx="256" cy="256" r="256"></circle> <path style="fill:#394110;" d="M267.669,511.724c117.382-5.268,214.175-89.578,238.445-200.987L288.882,94.118l-37.766-9.647 l-32.754,26.721v62.635l86.273,86.273l-38.141,1.221l-7.333-7.344l-178.11,6.272l115.936,113.438l-34.001,33.354L267.669,511.724z"></path> <path style="fill:#CB9869;" d="M170.667,262.034H85.333c-3.332,0-6.034-2.701-6.034-6.034s2.701-6.034,6.034-6.034h85.333 c3.332,0,6.034,2.701,6.034,6.034S173.999,262.034,170.667,262.034z"></path> <path style="fill:#E6B783;" d="M426.667,262.034h-85.333c-3.332,0-6.034-2.701-6.034-6.034s2.701-6.034,6.034-6.034h85.333 c3.332,0,6.034,2.701,6.034,6.034S429.999,262.034,426.667,262.034z"></path> <path style="fill:#CB9869;" d="M299.96,199.111h-12.067v-75.852c0-17.586-14.307-31.892-31.892-31.892s-31.892,14.307-31.892,31.892 v75.852H212.04v-75.852c0-24.24,19.72-43.96,43.96-43.96s43.96,19.72,43.96,43.96V199.111z"></path> <path style="fill:#E6B783;" d="M256,79.3v12.067c17.586,0,31.892,14.307,31.892,31.892v75.852h12.067v-75.852 C299.96,99.021,280.24,79.3,256,79.3z"></path> <path style="fill:#FDCE9A;" d="M306.424,186.29v-50.424H205.576v50.424c0,27.848-22.576,50.424-50.424,50.424l0,0v152.673 c0,13.152,10.661,23.812,23.812,23.812h154.074c13.152,0,23.812-10.661,23.812-23.812V236.715l0,0 C329,236.715,306.424,214.138,306.424,186.29z"></path> <g> <path style="fill:#CB9869;" d="M306.424,186.29v-50.424H256V413.2h77.036c13.15,0,23.812-10.661,23.812-23.812V236.715 C329,236.715,306.424,214.138,306.424,186.29z"></path> <path style="fill:#CB9869;" d="M242.424,357.279h27.152c16.067,0,29.091-13.024,29.091-29.091v-56.242h-85.333v56.242 C213.333,344.255,226.357,357.279,242.424,357.279z"></path> </g> <path style="fill:#865B34;" d="M256,271.946v85.333h13.576c16.067,0,29.091-13.024,29.091-29.091v-56.242H256z"></path> </g>

</svg><style>@media (prefers-color-scheme: light) { :root { filter: none; } }
</style></svg>